<?xml version="1.0" encoding="UTF-8"?>
<svg width="700px" height="128px" viewBox="0 -30 1115 160" version="1.1"
    xmlns="http://www.w3.org/2000/svg"
    xmlns:xlink="http://www.w3.org/1999/xlink">
    <!-- Generator: Sketch 55.2 (78181) - https://sketchapp.com -->
    <title>logo-colored-light-horizontal@1x</title>
    <desc>Created with Sketch.</desc>
    <defs>
        <linearGradient x1="80.120249%" y1="36.83168%" x2="35.628671%" y2="66.908509%" id="linearGradient-1">
            <stop stop-color="#804FCE" offset="0%"></stop>
            <stop stop-color="#2D3383" offset="100%"></stop>
        </linearGradient>
        <radialGradient cx="65.287843%" cy="50%" fx="65.287843%" fy="50%" r="69.141026%" id="radialGradient-2">
            <stop stop-color="#311476" offset="0%"></stop>
            <stop stop-color="#2B214F" offset="100%"></stop>
        </radialGradient>
        <radialGradient cx="27.0603132%" cy="33.2179489%" fx="27.0603132%" fy="33.2179489%" r="78.7408337%" gradientTransform="translate(0.270603,0.332179),scale(0.999806,1.000000),rotate(49.055928),translate(-0.270603,-0.332179)" id="radialGradient-3">
            <stop stop-color="#1B357A" offset="0%"></stop>
            <stop stop-color="#512BCD" offset="100%"></stop>
        </radialGradient>
        <radialGradient cx="27.3344331%" cy="24.8188144%" fx="27.3344331%" fy="24.8188144%" r="87.4360501%" gradientTransform="translate(0.273344,0.248188),scale(0.982138,1.000000),rotate(59.298843),translate(-0.273344,-0.248188)" id="radialGradient-4">
            <stop stop-color="#493CA8" offset="0%"></stop>
            <stop stop-color="#512BCC" offset="100%"></stop>
        </radialGradient>
    </defs>
    <g id="Page-1" stroke="none" stroke-width="1" fill="none" fill-rule="evenodd">
        <g id="logo-colored-light-horizontal@1x" fill-rule="nonzero">
            <path d="M843.044811,107 C851.161164,107 858.388364,105.649931 864.726415,102.949791 C871.064465,100.249651 876.41077,96.6569034 880.76533,92.1715486 C885.11989,87.6861927 888.414308,82.5648536 890.648585,76.8075313 C892.882861,71.0502089 894,65.1143655 894,59 C894,52.8856347 892.860063,46.9497909 890.580188,41.1924687 C888.300314,35.4351465 884.983097,30.3138076 880.628538,25.8284519 C876.273977,21.3430963 870.950471,17.7503487 864.658019,15.0502092 C858.365566,12.3500697 851.161164,11 843.044811,11 L807,11 L807,107 L843.044811,107 Z M841.122924,88 L829,88 L829,30 L841.122924,30 C845.708748,30 849.783776,30.8093024 853.348007,32.427907 C856.912236,34.0465117 859.931617,36.2158915 862.406146,38.9360465 C864.880675,41.6562016 866.76495,44.7585272 868.05897,48.2430233 C869.35299,51.7275194 870,55.3131783 870,59 C870,62.7767442 869.35299,66.396124 868.05897,69.8581395 C866.76495,73.3201553 864.880675,76.4112398 862.406146,79.1313956 C859.931617,81.8515503 856.900886,84.00969 853.313953,85.6058136 C849.727021,87.2019382 845.663344,88 841.122924,88 Z M953.533948,109 C961.591079,109 968.799495,107.603738 975.159196,104.811214 C981.518897,102.01869 986.928038,98.2878788 991.386618,93.6187785 C995.845199,88.9496792 999.228741,83.5656934 1001.53724,77.4668212 C1003.84575,71.367949 1005,65.0345055 1005,58.4664896 C1005,51.8984737 1003.84575,45.5650298 1001.53724,39.4661579 C999.228741,33.367286 995.845199,27.9833001 991.386618,23.3142004 C986.928038,18.6451006 981.518897,14.925459 975.159196,12.1552753 C968.799495,9.38509177 961.591079,8 953.533948,8 C945.476818,8 938.257086,9.38509177 931.874753,12.1552753 C925.492419,14.925459 920.071961,18.6451006 915.613382,23.3142004 C911.154801,27.9833001 907.771259,33.367286 905.462755,39.4661579 C903.154251,45.5650298 902,51.8984737 902,58.4664896 C902,65.0791859 903.154251,71.4238003 905.462755,77.5003318 C907.771259,83.5768633 911.154801,88.9496792 915.613382,93.6187785 C920.071961,98.2878788 925.492419,102.01869 931.874753,104.811214 C938.257086,107.603738 945.476818,109 953.533948,109 Z M953.466031,89 C949.027414,89 945.041716,88.149982 941.508939,86.4499451 C937.976162,84.7499081 934.98689,82.4794647 932.54112,79.638614 C930.095351,76.7977632 928.227056,73.5430882 926.936234,69.8745876 C925.645411,66.2060874 925,62.4033737 925,58.4664467 C925,54.5295196 925.645411,50.7268061 926.936234,47.0583059 C928.227056,43.3898057 930.095351,40.1351301 932.54112,37.2942794 C934.98689,34.4534286 937.976162,32.1941694 941.508939,30.5165016 C945.041716,28.8388339 949.027414,28 953.466031,28 C957.949941,28 961.946961,28.8388339 965.457092,30.5165016 C968.967223,32.1941694 971.956496,34.4534286 974.424911,37.2942794 C976.893326,40.1351301 978.772944,43.3898057 980.063767,47.0583059 C981.354589,50.7268061 982,54.5295196 982,58.4664467 C982,62.4033737 981.354589,66.2060874 980.063767,69.8745876 C978.772944,73.5430882 976.893326,76.7977632 974.424911,79.638614 C971.956496,82.4794647 968.9559,84.7499081 965.423122,86.4499451 C961.890346,88.149982 957.904648,89 953.466031,89 L953.466031,89 Z M1066.26954,109 C1073.0301,109 1079.22349,108.039371 1084.84973,106.118115 C1090.47597,104.196859 1095.35355,101.538376 1099.48248,98.1426675 C1103.61141,94.746958 1107.00303,90.8374257 1109.65735,86.4140675 C1112.31166,81.9907102 1114.09254,77.2099093 1115,72.0716656 L1091.04313,72.0716656 C1089.63657,76.8077861 1086.84614,80.8066794 1082.67183,84.0683474 C1078.49753,87.3300155 1073.12084,88.9608491 1066.54178,88.9608491 C1062.04986,88.9608491 1058.00034,88.1566027 1054.39319,86.5481089 C1050.78605,84.9396151 1047.7007,82.761446 1045.13713,80.0136028 C1042.57356,77.2657596 1040.56581,74.0376021 1039.11388,70.3291304 C1037.66195,66.620659 1036.93598,62.6664454 1036.93598,58.4664896 C1036.93598,54.5346161 1037.59389,50.7144436 1038.9097,47.005972 C1040.22552,43.2975005 1042.13118,40.0470029 1044.62668,37.2544791 C1047.12219,34.4619553 1050.1962,32.2279362 1053.84872,30.5524219 C1057.50124,28.8769077 1061.64151,28.0391506 1066.26954,28.0391506 C1069.854,28.0391506 1073.06413,28.5418048 1075.89993,29.5471134 C1078.73574,30.5524219 1081.23124,31.9375138 1083.38646,33.7023888 C1085.54167,35.4672638 1087.26584,37.5449015 1088.55896,39.9353019 C1089.85209,42.3257022 1090.77089,44.9283343 1091.31536,47.7431983 L1114.86388,47.7431983 C1114.22866,42.292192 1112.65195,37.1316079 1110.13376,32.2614465 C1107.61557,27.391285 1104.26932,23.1578191 1100.09501,19.5610484 C1095.92071,15.9642778 1090.97507,13.1382437 1085.25809,11.0829462 C1079.54111,9.02764874 1073.09816,8 1065.92925,8 C1057.58064,8 1050.17352,9.38509177 1043.70788,12.1552753 C1037.24225,14.925459 1031.80885,18.6451006 1027.40768,23.3142004 C1023.00651,27.9833001 1019.67161,33.367286 1017.40297,39.4661579 C1015.13432,45.5650298 1014,51.8984737 1014,58.4664896 C1014,65.2579075 1015.17969,71.6918821 1017.53908,77.7684136 C1019.89847,83.8449461 1023.33547,89.1954213 1027.85007,93.8198411 C1032.36467,98.4442599 1037.85478,102.130391 1044.32042,104.878235 C1050.78605,107.626078 1058.10243,109 1066.26954,109 L1066.26954,109 Z" id="Doc" fill="#FFFFFF"></path>
            <g id="Logo">
                <path d="M0,59.5565174 C29.5380287,19.8521725 61.3842042,0 95.5385265,0 C129.692849,0 161.394114,19.8521725 190.642322,59.5565174 C161.394114,99.4951188 129.692849,119.464419 95.5385265,119.464419 C61.3842042,119.464419 29.5380287,99.4951188 0,59.5565174 Z" id="Path" fill="url(#linearGradient-1)"></path>
                <path d="M96.0049857,109.449438 C123.579237,109.449438 145.932584,87.1102079 145.932584,59.5533708 C145.932584,31.9965337 123.579237,9.65730337 96.0049857,9.65730337 C68.4307344,9.65730337 46.0773872,31.9965337 46.0773872,59.5533708 C46.0773872,67.2676708 44.4957625,101.74335 48.6617244,92.7219095 C52.8276863,83.7004689 53.38575,81.401229 56.017125,84.55661 C65.1755625,95.5388374 80.5813753,109.449438 96.0049857,109.449438 L96.0049857,109.449438 Z" id="Path" fill="#FFFFFF"></path>
                <circle id="Oval" fill="url(#radialGradient-2)" cx="96.036517" cy="59.553371" r="34.15824"></circle>
                <path d="M96.1622284,93.7032428 C115.052501,93.7049821 130.364682,78.3957737 130.362943,59.5091687 C117.067159,92.4172758 78.6983009,84.7512604 71.3987261,67.5461555 C64.0991512,50.3410506 76.3232856,25.4813067 96.1559299,25.3087961 C77.2656576,25.3070569 61.9534761,40.6162653 61.9552153,59.5028702 C61.9569546,78.3894752 77.2719561,93.7015035 96.1622284,93.7032428 L96.1622284,93.7032428 Z" id="Path" fill="url(#radialGradient-3)" transform="translate(96.159079, 59.506019) rotate(-22.000000) translate(-96.159079, -59.506019) "></path>
                <path d="M97.038356,89.0660992 C112.715955,89.2276052 129.730556,75.2269917 129.728817,56.3404681 C116.433135,89.2484336 88.0973045,81.6033592 80.7977861,64.3983284 C73.4982679,47.1932975 87.5908665,28.6729852 99.262516,26.4254619 C80.3723902,26.4237226 65.945813,39.5119208 65.9475522,58.3984445 C65.9492915,77.2849682 81.3607569,88.9045932 97.038356,89.0660992 L97.038356,89.0660992 Z" id="Path" fill="url(#radialGradient-4)" transform="translate(97.838184, 57.746472) rotate(-22.000000) translate(-97.838184, -57.746472) "></path>
            </g>
            <g id="Group" transform="translate(241.000000, 20.000000)" fill="#FFFFFF">
                <path d="M66.7506709,0.733516484 C68.7955594,0.733516484 70.4752641,1.39367472 71.7898353,2.71401099 C73.1044065,4.03434726 73.7616822,5.77031891 73.7616822,7.92197802 L73.7616822,71.5912088 C73.7616822,73.5472625 73.1044065,75.2098833 71.7898353,76.5791209 C70.4752641,77.9483585 68.7955594,78.632967 66.7506709,78.632967 C64.7057823,78.632967 63.0504212,77.9728088 61.7845378,76.6524725 C60.5186544,75.3321363 59.8857222,73.6450652 59.8857222,71.5912088 L59.8857222,67.7769231 C57.3539554,71.2000171 53.8971719,74.1096034 49.5152679,76.5057692 C45.1333639,78.9019351 40.4107159,80.1 35.3471824,80.1 C28.7256385,80.1 22.7127826,78.3884787 17.3084343,74.9653846 C11.9040861,71.5422906 7.66830904,66.7744811 4.60097622,60.6618132 C1.5336434,54.5491453 0,47.6786096 0,40.05 C0,32.4213904 1.5336434,25.5508547 4.60097622,19.4381868 C7.66830904,13.3255189 11.8797425,8.55770942 17.235403,5.13461538 C22.5910635,1.71152135 28.4822016,0 34.9089942,0 C40.0699034,0 44.8655819,1.07581342 49.2961738,3.22747253 C53.7267656,5.37913164 57.2565798,8.11756579 59.8857222,11.4428571 L59.8857222,7.92197802 C59.8857222,5.8681216 60.5186544,4.15660025 61.7845378,2.78736264 C63.0504212,1.41812502 64.7057823,0.733516484 66.7506709,0.733516484 Z M37.3306075,67.5 C41.9698356,67.5 46.0907903,66.3324441 49.6935951,63.9972973 C53.2963999,61.6621505 56.1095067,58.4513718 58.1329998,54.3648649 C60.1564929,50.2783579 61.1682243,45.6567825 61.1682243,40.5 C61.1682243,35.4405152 60.1564929,30.867588 58.1329998,26.7810811 C56.1095067,22.6945742 53.2963999,19.4594714 49.6935951,17.0756757 C46.0907903,14.69188 41.9698356,13.5 37.3306075,13.5 C32.6913794,13.5 28.5704247,14.6675559 24.9676199,17.0027027 C21.364815,19.3378495 18.5517083,22.5486282 16.5282152,26.6351351 C14.504722,30.7216421 13.4929907,35.3432175 13.4929907,40.5 C13.4929907,45.6567825 14.504722,50.2783579 16.5282152,54.3648649 C18.5517083,58.4513718 21.364815,61.6621505 24.9676199,63.9972973 C28.5704247,66.3324441 32.6913794,67.5 37.3306075,67.5 Z M132.737815,0 C135.280507,0 137.48088,0.657362829 139.339001,1.97210821 C141.197121,3.28685359 142.126168,4.91808728 142.126168,6.86585821 C142.126168,9.20318333 141.514953,10.9804976 140.292505,12.1978545 C139.070057,13.4152113 137.578693,14.0238806 135.818368,14.0238806 C134.938206,14.0238806 133.617982,13.7317193 131.857656,13.1473881 C129.803943,12.4656682 128.190336,12.1248134 127.016786,12.1248134 C123.985115,12.1248134 121.026836,13.1717246 118.141858,15.2655784 C115.256881,17.3594321 112.909816,20.2323511 111.100593,23.8844216 C109.29137,27.5364921 108.386772,31.602403 108.386772,36.0822761 L108.386772,71.2880597 C108.386772,73.2358306 107.72666,74.8914111 106.406416,76.2548507 C105.086172,77.6182904 103.39922,78.3 101.345507,78.3 C99.2917939,78.3 97.62929,77.6426372 96.3579439,76.3278918 C95.0865978,75.0131464 94.4509346,73.3332192 94.4509346,71.2880597 L94.4509346,8.76492537 C94.4509346,6.81715444 95.1110467,5.16157398 96.4312904,3.79813433 C97.7515342,2.43470149 99.38959,1.75298507 101.345507,1.75298507 C103.39922,1.75298507 105.086172,2.43470149 106.406416,3.79813433 C107.72666,5.16157398 108.386772,6.81715444 108.386772,8.76492537 L108.386772,16.2151119 C110.53828,11.4430732 113.765495,7.57193649 118.068512,4.60158582 C122.371528,1.63123515 127.261247,0.0973885466 132.737815,0 L132.737815,0 Z M216.981877,0.733695652 C219.02407,0.733695652 220.70156,1.39401514 222.014398,2.71467391 C223.327236,4.03533269 223.983645,5.77172837 223.983645,7.92391304 L223.983645,72.4891304 C223.983645,80.4130831 222.306155,87.040734 218.951124,92.3722826 C215.596093,97.7038312 211.049852,101.641291 205.312263,104.184783 C199.574675,106.728274 193.107828,108 185.911531,108 C182.02164,108 177.475399,107.315224 172.27267,105.945652 C167.069941,104.57608 163.739272,103.157616 162.280563,101.690217 C159.265898,100.124992 157.758588,98.1684897 157.758588,95.8206522 C157.758588,95.2336924 157.95308,94.4510918 158.342069,93.4728261 C159.411789,91.0271617 161.210836,89.8043478 163.739265,89.8043478 C165.00348,89.8043478 166.364921,90.0978228 167.82363,90.6847826 C175.603411,93.7174068 181.681274,95.2336957 186.057401,95.2336957 C193.837182,95.2336957 199.793487,93.3505622 203.926497,89.5842391 C208.059505,85.817916 210.125979,80.6576415 210.125979,74.1032609 L210.125979,66.1793478 C208.083786,69.9945843 204.655872,73.2717254 199.842132,76.0108696 C195.028392,78.7500137 189.947299,80.1195652 184.598699,80.1195652 C177.888638,80.1195652 171.762152,78.4076258 166.219058,74.9836957 C160.675964,71.5597655 156.324213,66.7907914 153.163678,60.6766304 C150.003141,54.5624694 148.422897,47.6902555 148.422897,40.0597826 C148.422897,32.4293097 150.003141,25.5570958 153.163678,19.4429348 C156.324213,13.3287738 160.651652,8.55979973 166.146123,5.13586957 C171.640593,1.7119394 177.694145,0 184.306959,0 C189.655558,0 194.639406,1.22281386 199.258651,3.66847826 C203.877896,6.11414266 207.500303,9.09780848 210.125979,12.6195652 L210.125979,7.92391304 C210.125979,5.86955495 210.758076,4.15761554 212.022291,2.78804348 C213.286506,1.41847141 214.939684,0.733695652 216.981877,0.733695652 L216.981877,0.733695652 Z M186.579195,67.5 C191.403578,67.5 195.686386,66.3567682 199.427744,64.0702703 C203.169103,61.7837724 206.098149,58.5729936 208.214971,54.4378378 C210.331792,50.302682 211.390187,45.6567825 211.390187,40.5 C211.390187,35.3432175 210.331792,30.7216421 208.214971,26.6351351 C206.098149,22.5486282 203.169103,19.3378495 199.427744,17.0027027 C195.686386,14.6675559 191.403578,13.5 186.579195,13.5 C181.853268,13.5 177.619689,14.6675559 173.87833,17.0027027 C170.136971,19.3378495 167.207926,22.5729523 165.091104,26.7081081 C162.974283,30.8432639 161.915888,35.4405152 161.915888,40.5 C161.915888,45.5594848 162.974283,50.1567361 165.091104,54.2918919 C167.207926,58.4270477 170.136971,61.6621505 173.87833,63.9972973 C177.619689,66.3324441 181.853268,67.5 186.579195,67.5 L186.579195,67.5 Z M314.836449,40.1967033 C314.836449,47.8253129 313.127126,54.6713983 309.708431,60.7351648 C306.289735,66.7989314 301.625727,71.5422906 295.716268,74.9653846 C289.806808,78.3884787 283.286965,80.1 276.156542,80.1 C269.026119,80.1 262.506276,78.3884787 256.596817,74.9653846 C250.687357,71.5422906 246.023349,66.7989314 242.604653,60.7351648 C239.185958,54.6713983 237.476636,47.8253129 237.476636,40.1967033 C237.476636,32.5680937 239.185958,25.6731077 242.604653,19.5115385 C246.023349,13.3499692 250.687357,8.55770942 256.596817,5.13461538 C262.506276,1.71152135 269.026119,0 276.156542,0 C283.286965,0 289.806808,1.71152135 295.716268,5.13461538 C301.625727,8.55770942 306.289735,13.3499692 309.708431,19.5115385 C313.127126,25.6731077 314.836449,32.5680937 314.836449,40.1967033 L314.836449,40.1967033 Z M301.343458,40.6459459 C301.343458,35.3918656 300.245667,30.697318 298.05005,26.5621622 C295.854435,22.4270064 292.8782,19.2162276 289.121257,16.9297297 C285.364314,14.6432318 281.192706,13.5 276.606308,13.5 C272.019911,13.5 267.848303,14.6432318 264.09136,16.9297297 C260.334417,19.2162276 257.358183,22.4270064 255.162566,26.5621622 C252.966951,30.697318 251.869159,35.3918656 251.869159,40.6459459 C251.869159,45.8027285 252.966951,50.4243039 255.162566,54.5108108 C257.358183,58.5973177 260.334417,61.7837724 264.09136,64.0702703 C267.848303,66.3567682 272.019911,67.5 276.606308,67.5 C281.192706,67.5 285.364314,66.3567682 289.121257,64.0702703 C292.8782,61.7837724 295.854435,58.5973177 298.05005,54.5108108 C300.245667,50.4243039 301.343458,45.8027285 301.343458,40.6459459 Z M326.946906,66.6032967 C326.069525,65.2340591 325.630841,63.9137426 325.630841,62.6423077 C325.630841,60.686254 326.654437,59.0236332 328.70166,57.6543956 C329.676528,56.9697768 330.797609,56.6274725 332.064937,56.6274725 C333.8197,56.6274725 335.428207,57.3609817 336.890509,58.828022 C339.815113,62.1533133 342.959015,64.6472444 346.322309,66.3098901 C349.685604,67.9725358 353.706873,68.8038462 358.386239,68.8038462 C362.090737,68.7060435 365.356496,67.8502828 368.183613,66.2365385 C371.010729,64.6227941 372.424267,62.0066115 372.424267,58.3879121 C372.424267,55.0626207 370.986358,52.519789 368.110498,50.7593407 C365.234637,48.9988923 361.018397,47.3851722 355.46165,45.9181319 C350.002389,44.4510916 345.469322,42.9107224 341.862311,41.296978 C338.2553,39.6832337 335.208883,37.3360044 332.72297,34.2552198 C330.237057,31.1744351 328.994119,27.1401348 328.994119,22.1521978 C328.994119,17.7510769 330.237057,13.8879287 332.72297,10.5626374 C335.208883,7.23734601 338.523384,4.64561369 342.666573,2.78736264 C346.809762,0.929111588 351.318458,0 356.192797,0 C360.872163,0 365.527088,0.880210978 370.15771,2.64065934 C374.788332,4.4011077 378.565889,7.09064125 381.490493,10.7093407 C382.660334,12.0785783 383.245247,13.496696 383.245247,14.9637363 C383.245247,16.5285793 382.465364,18.0444982 380.905575,19.5115385 C379.930707,20.3917626 378.712141,20.8318681 377.249839,20.8318681 C375.495076,20.8318681 374.08154,20.2450608 373.009185,19.0714286 C370.961962,16.7241641 368.451715,14.9148415 365.478368,13.6434066 C362.505021,12.3719717 359.214891,11.7362637 355.607879,11.7362637 C351.903381,11.7362637 348.75948,12.4942232 346.17608,14.0101648 C343.59268,15.5261065 342.300999,18.0933885 342.300999,21.7120879 C342.398486,25.135182 343.885137,27.6780137 346.760997,29.3406593 C349.636858,31.003305 354.048069,32.6170251 359.994763,34.1818681 C365.161563,35.5511057 369.450918,37.018124 372.862955,38.582967 C376.274993,40.14781 379.15081,42.470589 381.490493,45.5513736 C383.830176,48.6321583 385,52.6664586 385,57.6543956 C385,62.2511219 383.683948,66.2365216 381.051805,69.6107143 C378.419662,72.984907 374.983303,75.5766393 370.742628,77.385989 C366.501953,79.1953387 361.993256,80.1 357.216403,80.1 C351.074735,80.1 345.396215,79.0241866 340.180672,76.8725275 C334.965129,74.7208684 330.553917,71.2978257 326.946906,66.6032967 L326.946906,66.6032967 Z" id="Argos"></path>
                <path d="M451.951087,80 C431.53654,80 421,65.7142857 421,46.9230769 L421,33.0769231 C421,14.2857143 431.53654,0 451.951087,0 C469.292476,0 480.268039,11.8681319 481.585106,26.043956 L476.426592,26.043956 C474.890013,14.3956044 466.658341,4.50549451 451.841331,4.50549451 C434.938965,4.50549451 426.378026,16.5934066 426.378026,32.967033 L426.378026,47.032967 C426.378026,63.4065934 434.938965,75.4945055 451.841331,75.4945055 C466.658341,75.4945055 474.890013,65.6043956 476.426592,53.956044 L481.585106,53.956044 C480.268039,68.1318681 469.292476,80 451.951087,80 Z M500.574468,79.1011236 L500.574468,1.79775281 L506,1.79775281 L506,79.1011236 L500.574468,79.1011236 Z" id="CI"></path>
            </g>
        </g>
    </g>
</svg>